<svg width="18" height="12" viewBox="0 0 18 12" fill="none" xmlns="http://www.w3.org/2000/svg">
<path fill-rule="evenodd" clip-rule="evenodd" d="M17.2037 1.66666C17.2037 1.11437 16.7697 0.666656 16.2342 0.666656H15.2646C14.7292 0.666656 14.2951 1.11437 14.2951 1.66666V10.3333C14.2951 10.8856 14.7292 11.3333 15.2646 11.3333H16.2342C16.7697 11.3333 17.2037 10.8856 17.2037 10.3333V1.66666ZM10.74 2.99999H11.7096C12.2451 2.99999 12.6792 3.44771 12.6792 3.99999V10.3333C12.6792 10.8856 12.2451 11.3333 11.7096 11.3333H10.74C10.2046 11.3333 9.77049 10.8856 9.77049 10.3333V3.99999C9.77049 3.44771 10.2046 2.99999 10.74 2.99999ZM7.18501 5.33332H6.21546C5.67999 5.33332 5.2459 5.78104 5.2459 6.33332V10.3333C5.2459 10.8856 5.67999 11.3333 6.21546 11.3333H7.18501C7.72048 11.3333 8.15457 10.8856 8.15457 10.3333V6.33332C8.15457 5.78104 7.72048 5.33332 7.18501 5.33332ZM3.62998 8.33332C3.62998 7.78104 3.19589 7.33332 2.66042 7.33332H1.69087C1.1554 7.33332 0.721313 7.78104 0.721313 8.33332V10.3333C0.721313 10.8856 1.1554 11.3333 1.69087 11.3333H2.66042C3.19589 11.3333 3.62998 10.8856 3.62998 10.3333V8.33332Z" fill="black"/>
</svg>
