<svg width="21" height="15" viewBox="0 0 21 15" fill="none" xmlns="http://www.w3.org/2000/svg">
<path fill-rule="evenodd" clip-rule="evenodd" d="M10.3338 3.57391C12.5586 3.574 14.6982 4.4117 16.3106 5.91385C16.432 6.02982 16.6261 6.02836 16.7457 5.91057L17.9063 4.76273C17.9668 4.70299 18.0006 4.62207 18.0001 4.53787C17.9996 4.45367 17.9649 4.37314 17.9036 4.3141C13.6717 0.339759 6.99533 0.339759 2.7634 4.3141C2.7021 4.3731 2.66732 4.4536 2.66676 4.5378C2.66619 4.622 2.69989 4.70295 2.76039 4.76273L3.92134 5.91057C4.04084 6.02853 4.23506 6.03 4.3564 5.91385C5.96897 4.4116 8.10888 3.5739 10.3338 3.57391ZM10.3322 7.29946C11.556 7.29939 12.736 7.75599 13.6431 8.58055C13.7658 8.69757 13.9591 8.69503 14.0787 8.57483L15.2392 7.39767C15.3004 7.33593 15.3343 7.25216 15.3334 7.16512C15.3325 7.07808 15.2969 6.99503 15.2346 6.93454C12.4723 4.35517 8.19453 4.35517 5.43224 6.93454C5.36985 6.99503 5.33425 7.07812 5.33343 7.16519C5.33261 7.25226 5.36664 7.33601 5.42789 7.39767L6.58814 8.57483C6.70774 8.69503 6.901 8.69757 7.02369 8.58055C7.93019 7.75653 9.10931 7.29997 10.3322 7.29946ZM12.6667 10.0231C12.6685 10.1085 12.6342 10.1909 12.5719 10.2508L10.5571 12.2419C10.498 12.3004 10.4175 12.3333 10.3335 12.3333C10.2495 12.3333 10.169 12.3004 10.1099 12.2419L8.0948 10.2508C8.03255 10.1908 7.99831 10.1084 8.00015 10.023C8.002 9.93753 8.03977 9.85661 8.10455 9.79932C9.39126 8.73357 11.2757 8.73357 12.5625 9.79932C12.6272 9.85665 12.6649 9.9376 12.6667 10.0231Z" fill="black"/>
</svg>
