<svg width="21" height="15" viewBox="0 0 21 15" fill="none" xmlns="http://www.w3.org/2000/svg">
<path fill-rule="evenodd" clip-rule="evenodd" d="M10.3337 3.57391C12.5584 3.574 14.6981 4.4117 16.3105 5.91385C16.4319 6.02982 16.626 6.02836 16.7455 5.91057L17.9061 4.76273C17.9667 4.70299 18.0005 4.62207 18 4.53787C17.9995 4.45367 17.9647 4.37314 17.9035 4.3141C13.6716 0.339759 6.9952 0.339759 2.76328 4.3141C2.70198 4.3731 2.6672 4.4536 2.66663 4.5378C2.66607 4.622 2.69977 4.70295 2.76027 4.76273L3.92122 5.91057C4.04072 6.02853 4.23494 6.03 4.35628 5.91385C5.96885 4.4116 8.10876 3.5739 10.3337 3.57391ZM10.3321 7.29946C11.5558 7.29939 12.7359 7.75599 13.643 8.58055C13.7657 8.69757 13.9589 8.69503 14.0785 8.57483L15.2391 7.39767C15.3002 7.33593 15.3342 7.25216 15.3333 7.16512C15.3324 7.07808 15.2968 6.99503 15.2344 6.93454C12.4722 4.35517 8.1944 4.35517 5.43212 6.93454C5.36973 6.99503 5.33413 7.07812 5.33331 7.16519C5.33249 7.25226 5.36652 7.33601 5.42777 7.39767L6.58802 8.57483C6.70761 8.69503 6.90088 8.69757 7.02357 8.58055C7.93006 7.75653 9.10919 7.29997 10.3321 7.29946ZM12.6666 10.0231C12.6683 10.1085 12.634 10.1909 12.5717 10.2508L10.557 12.2419C10.4979 12.3004 10.4174 12.3333 10.3334 12.3333C10.2494 12.3333 10.1688 12.3004 10.1098 12.2419L8.09468 10.2508C8.03243 10.1908 7.99818 10.1084 8.00003 10.023C8.00188 9.93753 8.03965 9.85661 8.10443 9.79932C9.39113 8.73357 11.2756 8.73357 12.5623 9.79932C12.6271 9.85665 12.6648 9.9376 12.6666 10.0231Z" fill="black"/>
</svg>
