<svg width="21" height="15" viewBox="0 0 21 15" fill="none" xmlns="http://www.w3.org/2000/svg">
<path fill-rule="evenodd" clip-rule="evenodd" d="M10.4852 3.57391C12.6422 3.574 14.7167 4.4117 16.28 5.91385C16.3977 6.02982 16.5858 6.02836 16.7018 5.91057L17.8271 4.76273C17.8858 4.70299 17.9185 4.62207 17.918 4.53787C17.9175 4.45367 17.8839 4.37314 17.8245 4.3141C13.7214 0.339759 7.24831 0.339759 3.14523 4.3141C3.08579 4.3731 3.05207 4.4536 3.05152 4.5378C3.05097 4.622 3.08364 4.70295 3.14231 4.76273L4.26791 5.91057C4.38378 6.02853 4.57208 6.03 4.68973 5.91385C6.2532 4.4116 8.32796 3.5739 10.4852 3.57391ZM10.4836 7.29946C11.6701 7.29939 12.8142 7.75599 13.6937 8.58055C13.8127 8.69757 14 8.69503 14.116 8.57483L15.2412 7.39767C15.3005 7.33593 15.3334 7.25216 15.3325 7.16512C15.3317 7.07808 15.2972 6.99503 15.2367 6.93454C12.5585 4.35517 8.411 4.35517 5.73281 6.93454C5.67232 6.99503 5.6378 7.07812 5.63701 7.16519C5.63621 7.25226 5.66921 7.33601 5.72859 7.39767L6.85352 8.57483C6.96947 8.69503 7.15686 8.69757 7.27581 8.58055C8.15471 7.75653 9.29793 7.29997 10.4836 7.29946ZM12.747 10.0231C12.7487 10.1085 12.7155 10.1909 12.6551 10.2508L10.7016 12.2419C10.6444 12.3004 10.5663 12.3333 10.4849 12.3333C10.4034 12.3333 10.3253 12.3004 10.2681 12.2419L8.31431 10.2508C8.25395 10.1908 8.22075 10.1084 8.22254 10.023C8.22433 9.93753 8.26095 9.85661 8.32376 9.79932C9.57129 8.73357 11.3984 8.73357 12.6459 9.79932C12.7087 9.85665 12.7453 9.9376 12.747 10.0231Z" fill="black"/>
</svg>
