<svg width="22" height="22" viewBox="0 0 22 22" fill="none" xmlns="http://www.w3.org/2000/svg">
<path d="M3.18571 11.1698C2.10512 13.5513 5.76116 19.1191 6.84452 20.907C8.97249 20.4366 13.1851 17.7013 14.5971 16.3476C17.0176 14.027 17.3087 11.9541 16.9817 8.45529C16.573 4.08178 11.7907 0.116916 12.0617 0.838185C12.3327 1.55945 9.26847 4.35716 9.04334 4.85331C8.81822 5.34945 4.53644 8.19291 3.18571 11.1698Z" fill="#0C6C16"/>
<path fill-rule="evenodd" clip-rule="evenodd" d="M6.64982 20.0916C6.69227 20.3085 6.73005 20.5016 6.76091 20.6662C10.7419 16.8136 18.7039 8.02984 18.7039 3.71506C18.7039 4.22873 16.9916 5.08488 15.736 5.71271C15.1081 6.02663 14.5945 6.28347 14.4661 6.41188C14.3544 6.52357 13.8542 6.7 13.1438 6.95056C11.4036 7.56432 8.40236 8.62288 6.76094 10.2643C5.05985 11.9654 6.16238 17.6003 6.64982 20.0916Z" fill="#4AB425"/>
<path d="M20.6301 12.576C21.7859 8.33819 18.7039 2.94455 18.7039 3.71506C18.7039 8.02984 10.7419 16.8136 6.76091 20.6662C8.91833 20.9744 13.8239 19.8957 15.6218 19.1252C18.7039 17.8043 19.7055 15.9662 20.6301 12.576Z" fill="#4AB425"/>
<path d="M21.0154 12.576C22.1711 8.33825 19.0891 2.94461 19.0891 3.71512C19.0891 8.0299 11.1271 16.8137 7.14617 20.6663C9.30359 20.9745 14.2092 19.8958 16.007 19.1252C19.0891 17.8043 20.0908 15.9663 21.0154 12.576Z" fill="#72CB53"/>
</svg>
