<svg width="22" height="22" viewBox="0 0 22 22" fill="none" xmlns="http://www.w3.org/2000/svg">
<path d="M3.18571 11.1697C2.10512 13.5512 5.76116 19.119 6.84452 20.9069C8.97249 20.4365 13.1851 17.7012 14.5971 16.3476C17.0176 14.027 17.3087 11.954 16.9817 8.45523C16.573 4.08172 11.7907 0.116855 12.0617 0.838124C12.3327 1.55939 9.26847 4.3571 9.04334 4.85324C8.81822 5.34939 4.53644 8.19285 3.18571 11.1697Z" fill="#0C6C16"/>
<path fill-rule="evenodd" clip-rule="evenodd" d="M6.64982 20.0915C6.69227 20.3084 6.73005 20.5015 6.76091 20.6661C10.7419 16.8136 18.7039 8.02978 18.7039 3.715C18.7039 4.22867 16.9916 5.08482 15.736 5.71265C15.1081 6.02657 14.5945 6.28341 14.4661 6.41182C14.3544 6.52351 13.8542 6.69994 13.1438 6.9505C11.4036 7.56425 8.40236 8.62282 6.76094 10.2642C5.05985 11.9653 6.16238 17.6002 6.64982 20.0915Z" fill="#4AB425"/>
<path d="M20.6301 12.5759C21.7859 8.33813 18.7039 2.94449 18.7039 3.715C18.7039 8.02978 10.7419 16.8136 6.76091 20.6661C8.91833 20.9743 13.8239 19.8956 15.6218 19.1251C18.7039 17.8042 19.7055 15.9662 20.6301 12.5759Z" fill="#4AB425"/>
<path d="M21.0154 12.576C22.1711 8.33825 19.0891 2.94461 19.0891 3.71512C19.0891 8.0299 11.1271 16.8137 7.14617 20.6663C9.30359 20.9745 14.2092 19.8958 16.007 19.1252C19.0891 17.8043 20.0908 15.9663 21.0154 12.576Z" fill="#72CB53"/>
</svg>
