<svg width="83" height="12" viewBox="0 0 83 12" fill="none" xmlns="http://www.w3.org/2000/svg">
<rect width="83" height="12" rx="4" fill="#FFF48F" fill-opacity="0.35"/>
<path d="M7.66667 3.88L9.28 1L11.04 3.88L15 4L12.2133 6.76L13.5333 10L9.28 8.8L4.73333 10L6.93333 6.76L4 4L7.66667 3.88Z" fill="#FFD600"/>
<path d="M21.6667 3.88L23.28 1L25.04 3.88L29 4L26.2133 6.76L27.5333 10L23.28 8.8L18.7333 10L20.9333 6.76L18 4L21.6667 3.88Z" fill="#FFD600"/>
<path d="M35.6667 3.88L37.28 1L39.04 3.88L43 4L40.2133 6.76L41.5333 10L37.28 8.8L32.7333 10L34.9333 6.76L32 4L35.6667 3.88Z" fill="#FFD600"/>
<path d="M49.6667 3.88L51.28 1L53.04 3.88L57 4L54.2133 6.76L55.5333 10L51.28 8.8L46.7333 10L48.9333 6.76L46 4L49.6667 3.88Z" fill="#FFD600"/>
<path d="M65.28 1L63.6667 3.88L60 4L62.9333 6.76L60.7333 10L65.28 8.8V1Z" fill="#FFD600"/>
<path d="M65.3733 1L66.9867 3.88L70.6533 4L67.72 6.76L69.92 10L65.3733 8.8V1Z" fill="#C4C4C4"/>
</svg>
