<svg width="369" height="32" viewBox="0 0 369 32" fill="none" xmlns="http://www.w3.org/2000/svg">
<line x1="341.644" y1="10.5" x2="368.792" y2="10.5" stroke="black"/>
<line x1="341.644" y1="21" x2="368.792" y2="21" stroke="black"/>
<line x1="341.644" y1="31.5" x2="368.792" y2="31.5" stroke="black"/>
<path d="M24.5995 28L302.862 28" stroke="black" stroke-dasharray="2 2"/>
<path d="M15.0784 7.30434C15.0784 8.18926 14.6799 9.34713 14.0204 10.6326C13.3686 11.9031 12.4941 13.2379 11.6112 14.4589C10.7296 15.6781 9.84694 16.774 9.18411 17.5656C8.89105 17.9156 8.64138 18.2056 8.45432 18.4199C8.26725 18.2056 8.01758 17.9156 7.72452 17.5656C7.06168 16.774 6.17901 15.6781 5.29743 14.4589C4.41455 13.2379 3.54001 11.9031 2.88822 10.6326C2.22873 9.34713 1.8302 8.18926 1.8302 7.30434C1.8302 3.53456 4.80762 0.5 8.45431 0.5C12.101 0.5 15.0784 3.53456 15.0784 7.30434Z" stroke="black"/>
<ellipse cx="8.45437" cy="7.30436" rx="1.78103" ry="1.82609" fill="#F70F0F"/>
<path d="M11.9804 18.2609C11.9804 18.2609 15.0536 18.6685 15.5065 19.3565C16.2368 20.4659 11.2298 21 8.45428 21C5.67879 21 0.671842 20.4659 1.40212 19.3565C1.85502 18.6685 4.92822 18.2609 4.92822 18.2609" stroke="black"/>
</svg>
